<?xml version="1.0" encoding="UTF-8" standalone="no"?>
<!-- Created with Inkscape (http://www.inkscape.org/) -->

<svg
   xmlns:dc="http://purl.org/dc/elements/1.1/"
   xmlns:cc="http://creativecommons.org/ns#"
   xmlns:rdf="http://www.w3.org/1999/02/22-rdf-syntax-ns#"
   xmlns:svg="http://www.w3.org/2000/svg"
   xmlns="http://www.w3.org/2000/svg"
   xmlns:sodipodi="http://sodipodi.sourceforge.net/DTD/sodipodi-0.dtd"
   xmlns:inkscape="http://www.inkscape.org/namespaces/inkscape"
   width="166"
   height="130"
   viewBox="0 0 43.920835 34.395834"
   version="1.1"
   id="svg8"
   inkscape:version="0.92.3 (2405546, 2018-03-11)"
   sodipodi:docname="logo.svg">
  <defs
     id="defs2">
    <marker
       id="Arrow2Sstart"
       inkscape:isstock="true"
       inkscape:stockid="Arrow2Sstart"
       orient="auto"
       refX="0"
       refY="0"
       style="overflow:visible">
      <path
         d="M 8.72,4.03 -2.21,0.02 8.72,-4 c -1.75,2.37 -1.74,5.62 0,8.03 z"
         id="Arrow2SstartPath"
         style="fill:#000000;fill-opacity:1;stroke:none"
         transform="matrix(0.3,0,0,0.3,-0.69,0)"
         inkscape:connector-curvature="0" />
    </marker>
    <marker
       id="Arrow2Send"
       inkscape:isstock="true"
       inkscape:stockid="Arrow2Send"
       orient="auto"
       refX="0"
       refY="0"
       style="overflow:visible">
      <path
         d="M 8.72,4.03 -2.21,0.02 8.72,-4 c -1.75,2.37 -1.74,5.62 0,8.03 z"
         id="Arrow2SendPath"
         style="fill:#000000;fill-opacity:1;stroke:none"
         transform="matrix(-0.3,0,0,-0.3,0.69,0)"
         inkscape:connector-curvature="0" />
    </marker>
  </defs>
  <sodipodi:namedview
     id="base"
     pagecolor="#ffffff"
     bordercolor="#666666"
     borderopacity="1.0"
     inkscape:pageopacity="0"
     inkscape:pageshadow="2"
     inkscape:zoom="5.12"
     inkscape:cx="61.530214"
     inkscape:cy="71.029992"
     inkscape:document-units="mm"
     inkscape:current-layer="layer1"
     showgrid="false"
     inkscape:measure-start="258.599,743.472"
     inkscape:measure-end="155.563,422.244"
     inkscape:window-width="1920"
     inkscape:window-height="1015"
     inkscape:window-x="0"
     inkscape:window-y="0"
     inkscape:window-maximized="1"
     units="px"
     inkscape:pagecheckerboard="true" />
  <metadata
     id="metadata5">
    <rdf:RDF>
      <cc:Work
         rdf:about="">
        <dc:format>image/svg+xml</dc:format>
        <dc:type
           rdf:resource="http://purl.org/dc/dcmitype/StillImage" />
        <dc:title></dc:title>
      </cc:Work>
    </rdf:RDF>
  </metadata>
  <g
     inkscape:label="Layer 1"
     inkscape:groupmode="layer"
     id="layer1"
     style="display:inline"
     transform="translate(0,-262.60415)">
    <text
       xml:space="preserve"
       style="font-style:normal;font-weight:normal;font-size:10.58333302px;line-height:1.25;font-family:sans-serif;letter-spacing:0px;word-spacing:0px;fill:#000000;fill-opacity:1;stroke:none;stroke-width:0.26458332"
       x="21.916101"
       y="51.379303"
       id="text72"><tspan
         sodipodi:role="line"
         id="tspan70"
         x="21.916101"
         y="60.743073"
         style="stroke-width:0.26458332" /></text>
    <path
       sodipodi:type="star"
       style="fill:#ffff00;fill-rule:evenodd;stroke-width:0.26458332;image-rendering:auto"
       id="path86"
       sodipodi:sides="3"
       sodipodi:cx="67.351921"
       sodipodi:cy="82.649841"
       sodipodi:r1="62.566193"
       sodipodi:r2="31.283094"
       sodipodi:arg1="-0.52359878"
       sodipodi:arg2="0.52359878"
       inkscape:flatsided="false"
       inkscape:rounded="0"
       inkscape:randomized="0"
       d="M 121.53583,51.366745 94.443875,98.291389 67.351921,145.21603 40.259967,98.291388 13.168009,51.366745 l 54.183912,2e-6 z"
       inkscape:transform-center-y="2.2048607"
       transform="matrix(0.40529404,0,0,0.14096182,-5.3155103,276.54394)" />
    <rect
       style="fill:#0000ff;fill-rule:evenodd;stroke-width:0.26269674"
       id="rect4620"
       width="43.920834"
       height="21.166666"
       x="0.021405032"
       y="262.61804" />
    <text
       xml:space="preserve"
       style="font-style:normal;font-weight:normal;font-size:10.58333302px;line-height:1.25;font-family:sans-serif;letter-spacing:0px;word-spacing:0px;fill:#000000;fill-opacity:1;stroke:none;stroke-width:0.26458332"
       x="1.5333089"
       y="272.69797"
       id="text4645"><tspan
         sodipodi:role="line"
         x="1.5333089"
         y="272.69797"
         style="stroke-width:0.26458332"
         id="tspan4661"><tspan
   style="fill:#df0000;fill-opacity:1"
   id="tspan4647">Я</tspan>ндекс</tspan></text>
    <text
       xml:space="preserve"
       style="font-style:normal;font-weight:normal;font-size:10.58333302px;line-height:1.25;font-family:sans-serif;letter-spacing:0px;word-spacing:0px;fill:#000000;fill-opacity:1;stroke:none;stroke-width:0.26458332"
       x="16.27438"
       y="278.93457"
       id="text4669"><tspan
         sodipodi:role="line"
         id="tspan4667"
         x="16.27438"
         y="278.93457"
         style="font-size:4.23333311px;stroke-width:0.26458332">авто</tspan></text>
    <path
       style="fill:#ffffff;fill-opacity:1;stroke-width:0.27621359"
       d="M 41.708045,105.03424 0.6346998,80.264302 41.93754,80.194348 c 22.716563,-0.03848 59.82229,-0.03848 82.45718,0 l 41.15434,0.06995 -41.15205,24.790172 c -22.63363,13.63459 -41.256352,24.78107 -41.383833,24.76994 -0.127483,-0.0111 -18.714793,-11.16671 -41.305132,-24.79017 z"
       id="path4683"
       inkscape:connector-curvature="0"
       transform="matrix(0.26458333,0,0,0.26458333,0,262.60415)" />
    <path
       style="fill:#ffffff;fill-opacity:1;stroke-width:0.27621359"
       d="M 0.33163395,40.075225 V 0.3004686 H 83.19571 166.05979 V 40.075225 79.849982 H 83.19571 0.33163395 Z M 67.520589,61.435921 c 0.663932,-0.334461 0.759588,-0.329581 0.759588,0.03876 0,0.284094 0.270015,0.421414 0.82864,0.421414 h 0.828641 V 58.71077 c 0,-4.82278 -0.741741,-5.92972 -3.973399,-5.92972 -2.104775,0 -2.931941,0.357075 -2.931941,1.265677 0,0.586661 0.09327,0.687164 0.483374,0.520864 0.265856,-0.113333 1.184144,-0.264858 2.040644,-0.336723 1.321143,-0.110856 1.645725,-0.04221 2.140655,0.452719 1.021493,1.021493 0.767653,1.412026 -0.917808,1.412026 -2.876449,0 -4.299292,1.009006 -4.299292,3.048832 0,2.565919 2.363427,3.64028 5.040898,2.291476 z m 30.074428,-0.263118 c 0.980492,-0.887331 1.379394,-1.996143 1.379394,-3.834229 0,-3.034363 -1.348855,-4.555458 -4.039623,-4.555458 -2.613613,0 -4.005097,1.582696 -4.005097,4.555458 0,1.791624 0.598044,3.288842 1.567382,3.923976 1.457087,0.954722 3.993154,0.910074 5.097944,-0.08975 z m -19.368682,0.275761 c 1.254987,-0.502148 1.654812,-1.056998 1.654812,-2.296443 0,-0.855685 -0.810062,-1.951653 -1.442528,-1.951653 -0.185718,0 -0.07563,-0.183544 0.244653,-0.407877 0.810312,-0.567563 1.020016,-1.63907 0.512761,-2.619996 -0.521704,-1.008862 -1.747107,-1.38789 -4.493891,-1.390003 l -2.002548,-0.0015 v 4.557524 4.557525 h 2.204118 c 1.387565,0 2.618491,-0.165798 3.322623,-0.447535 z m 8.007725,-3.419456 v -3.86699 h 1.814599 c 1.723816,0 1.810185,-0.03109 1.726335,-0.62148 -0.0872,-0.613973 -0.139991,-0.621481 -4.369575,-0.621481 -4.097167,0 -4.281311,0.02375 -4.281311,0.552427 0,0.48473 0.211555,0.562504 1.726335,0.634662 l 1.726335,0.08223 v 3.853812 3.85381 h 0.828641 0.828641 z M 64.965613,40.903866 V 38.14173 h 8.700728 8.700728 v 2.762136 2.762136 h 1.519175 1.519175 v -4.281311 -4.28131 h -1.377441 -1.377442 l -0.07268,-9.460316 -0.07268,-9.460315 h -7.457767 -7.457766 l -0.181105,5.662378 c -0.291875,9.1256 -1.543167,12.743727 -4.577572,13.236092 l -1.041809,0.169046 -0.07625,4.207868 -0.07625,4.207868 h 1.664475 1.664476 z m 42.191627,-3.046045 2.00255,-0.630303 v -1.752602 c 0,-0.963933 -0.0835,-1.752603 -0.18549,-1.752603 -0.10202,0 -0.96175,0.310552 -1.91051,0.690117 -2.36294,0.945324 -5.47267,1.352996 -7.484192,0.981146 -2.131554,-0.394038 -3.369651,-1.083437 -4.430132,-2.466792 -0.810697,-1.057519 -1.058193,-1.681908 -1.573309,-3.969156 l -0.171068,-0.759587 h 8.329311 8.3293 l -0.14307,-2.554976 c -0.24472,-4.370368 -1.90684,-7.354052 -5.00808,-8.990015 -1.30229,-0.686985 -1.67066,-0.746514 -4.61945,-0.746514 -3.117621,0 -3.255468,0.02615 -5.095846,0.966748 -3.471217,1.7741 -5.291799,4.888891 -5.569874,9.529369 -0.364663,6.085452 2.204297,10.159116 7.517116,11.920088 1.767991,0.586012 7.522764,0.3188 10.012744,-0.46492 z m 46.74915,0.205078 1.79539,-0.611703 0.0831,-1.761292 c 0.0757,-1.604381 0.0388,-1.743055 -0.41432,-1.556583 -2.6089,1.073584 -3.70968,1.330916 -5.74552,1.343133 -1.92454,0.01155 -2.39746,-0.08896 -3.6646,-0.778826 -2.65525,-1.445599 -3.86495,-4.295392 -3.58181,-8.43797 0.1666,-2.437455 0.72266,-3.924913 1.9433,-5.198321 1.51543,-1.580948 2.79512,-2.078182 5.30311,-2.060573 2.02596,0.01422 3.12029,0.267476 5.73143,1.326377 0.42881,0.173894 0.48337,0.0067 0.48337,-1.481092 0,-1.446137 -0.0838,-1.721984 -0.60874,-2.002903 -2.16906,-1.160849 -7.03518,-1.431297 -9.87122,-0.54862 -4.99795,1.555537 -7.60196,6.445637 -6.89545,12.949066 0.46618,4.291274 3.23228,7.884605 6.96884,9.052959 1.93076,0.603711 6.37506,0.481155 8.47308,-0.233652 z m -137.252619,-5.928814 3.754026,-6.007646 2.529637,-0.07942 2.529636,-0.07942 v 6.087063 6.087065 h 2.209709 2.209709 V 23.50241 8.8630898 l -6.145753,0.00408 c -7.029584,0.00467 -8.917649,0.3035568 -11.120316,1.7603832 -0.945604,0.625416 -1.645319,1.387466 -2.209708,2.406569 -0.7699588,1.390292 -0.8259219,1.687859 -0.8259219,4.391586 0,2.570954 0.07672,3.034209 0.6757219,4.080163 0.702132,1.226036 2.226486,2.368379 4.505808,3.376632 0.720219,0.318587 1.309489,0.63616 1.309489,0.705718 0,0.104815 -6.049697,9.868942 -7.3928924,11.932026 l -0.4046223,0.62148 h 2.3107257 2.310727 z m 24.28126,1.035801 v -4.971845 h 5.800486 5.800485 v 4.971845 4.971844 h 1.795388 1.795389 V 27.093187 16.044643 H 54.33139 52.536002 v 4.557524 4.557524 h -5.800485 -5.800486 v -4.570144 -4.570144 l -1.864441,0.08167 -1.864442,0.08167 -0.07222,10.97949 -0.07222,10.97949 h 1.936666 1.936663 z m 78.444659,1.442713 v -3.529131 l 1.88093,-1.866511 1.88092,-1.866514 3.79575,5.395642 3.79576,5.395645 h 2.0736 c 1.58116,0 2.02622,-0.08199 1.87407,-0.345267 -0.10975,-0.189897 -2.16797,-3.157442 -4.57383,-6.594544 -2.40586,-3.437102 -4.37429,-6.35967 -4.37429,-6.494593 0,-0.134923 1.8023,-2.044392 4.0051,-4.243266 2.2028,-2.198873 4.0051,-4.092781 4.0051,-4.208684 0,-0.115903 -0.97315,-0.210733 -2.16256,-0.210733 h -2.16256 l -5.01289,5.078537 -5.01288,5.078536 -0.0752,-5.009483 -0.0752,-5.009483 h -1.79538 -1.79539 l -0.0722,10.97949 -0.0722,10.97949 h 1.93667 1.93666 z"
       id="path4685"
       inkscape:connector-curvature="0"
       transform="matrix(0.26458333,0,0,0.26458333,0,262.60415)" />
    <path
       style="fill:#ffffff;fill-opacity:1;stroke-width:0.27621359"
       d="m 16.427829,21.819387 c -1.679789,-0.831484 -2.390198,-2.122046 -2.40872,-4.375791 -0.01892,-2.301787 0.621368,-3.502852 2.328706,-4.368249 1.10145,-0.558292 1.627382,-0.621481 5.172685,-0.621481 h 3.94657 v 4.971845 4.971845 l -3.936043,-2.18e-4 c -3.437089,-1.9e-4 -4.083999,-0.07346 -5.103198,-0.577951 z"
       id="path4687"
       inkscape:connector-curvature="0"
       transform="matrix(0.26458333,0,0,0.26458333,0,262.60415)" />
    <path
       style="fill:#ffffff;fill-opacity:1;stroke-width:0.27621359"
       d="m 68.832604,34.999643 c 0,-0.05705 0.294515,-0.771758 0.654478,-1.588228 1.124763,-2.551195 1.62456,-5.335728 1.766177,-9.839952 l 0.132437,-4.212257 h 3.695298 3.695299 v 7.872087 7.872088 h -4.971845 c -2.734514,0 -4.971844,-0.04668 -4.971844,-0.103738 z"
       id="path4689"
       inkscape:connector-curvature="0"
       transform="matrix(0.26458333,0,0,0.26458333,0,262.60415)" />
    <path
       style="fill:#ffffff;fill-opacity:1;stroke-width:0.27621359"
       d="m 93.694525,24.538211 c 0.0038,-0.879594 1.18178,-3.270122 1.967064,-3.991914 1.634852,-1.502671 5.460121,-2.093162 7.283391,-1.124308 1.76714,0.939027 3.17646,3.113124 3.17646,4.90019 v 0.837512 h -6.214808 -6.214805 l 0.0027,-0.62148 z"
       id="path4691"
       inkscape:connector-curvature="0"
       transform="matrix(0.26458333,0,0,0.26458333,0,262.60415)" />
    <path
       style="fill:#ffffff;fill-opacity:1;stroke-width:0.27621359"
       d="m 64.468429,60.183574 c -0.182301,-0.182301 -0.331456,-0.74471 -0.331456,-1.249797 0,-1.099825 0.681668,-1.457096 2.780117,-1.457096 1.189953,0 1.363087,0.07191 1.363087,0.566144 0,0.782224 -0.715478,2.093464 -1.255337,2.300627 -0.741764,0.284642 -2.203296,0.193238 -2.556411,-0.159878 z"
       id="path4693"
       inkscape:connector-curvature="0"
       transform="matrix(0.26458333,0,0,0.26458333,0,262.60415)" />
    <path
       style="fill:#ffffff;fill-opacity:1;stroke-width:0.27621359"
       d="m 74.356875,55.266973 v -1.104855 h 1.181502 c 1.126145,0 2.409275,0.586257 2.409275,1.100787 0,0.639 -0.944757,1.108922 -2.229438,1.108922 h -1.361339 z"
       id="path4695"
       inkscape:connector-curvature="0"
       transform="matrix(0.26458333,0,0,0.26458333,0,262.60415)" />
    <path
       style="fill:#ffffff;fill-opacity:1;stroke-width:0.27621359"
       d="m 74.356875,59.133963 v -1.381068 h 1.319609 c 1.472817,0 2.547382,0.582577 2.547382,1.381068 0,0.79849 -1.074565,1.381068 -2.547382,1.381068 h -1.319609 z"
       id="path4697"
       inkscape:connector-curvature="0"
       transform="matrix(0.26458333,0,0,0.26458333,0,262.60415)" />
    <path
       style="fill:#ffffff;fill-opacity:1;stroke-width:0.27621359"
       d="m 93.431019,59.97801 c -1.098392,-1.098392 -1.086204,-3.985546 0.0218,-5.164966 0.599844,-0.638505 1.65009,-0.834055 2.574444,-0.479347 1.634209,0.627105 1.634209,5.38265 0,6.009755 -0.868932,0.33344 -2.065839,0.164966 -2.596248,-0.365442 z"
       id="path4699"
       inkscape:connector-curvature="0"
       transform="matrix(0.26458333,0,0,0.26458333,0,262.60415)" />
  </g>
</svg>
